<?xml version="1.0" standalone="no"?><!DOCTYPE svg PUBLIC "-//W3C//DTD SVG 1.1//EN" "http://www.w3.org/Graphics/SVG/1.1/DTD/svg11.dtd"><svg t="1591543487361" class="icon" viewBox="0 0 1024 1024" version="1.1" xmlns="http://www.w3.org/2000/svg" p-id="2118" xmlns:xlink="http://www.w3.org/1999/xlink" width="200" height="200"><defs><style type="text/css"></style></defs><path d="M859.5 112h-695c-52.94 0-95.86 43.42-95.86 97v606c0 53.55 42.92 97 95.86 97h695c52.94 0 95.86-43.42 95.86-97V209c0-53.55-42.92-97-95.86-97zM689.79 551.46L458.13 699.91a52.26 52.26 0 0 1-52.38 2.76c-17.15-8.49-27.09-24-27.09-42.2V363.55c0-18.2 9.91-33.74 27.05-42.23a52.34 52.34 0 0 1 52.39 2.76l231.66 148.45c14.33 9.23 22.18 23.17 22.18 39.48s-7.85 30.25-22.14 39.45z" p-id="2119" fill="#bfbfbf"></path></svg>